<?xml version="1.0" encoding="UTF-8" standalone="no"?>
<!-- Generator: Adobe Illustrator 14.0.0, SVG Export Plug-In . SVG Version: 6.00 Build 43363)  -->

<svg
   xmlns:dc="http://purl.org/dc/elements/1.1/"
   xmlns:cc="http://creativecommons.org/ns#"
   xmlns:rdf="http://www.w3.org/1999/02/22-rdf-syntax-ns#"
   xmlns:svg="http://www.w3.org/2000/svg"
   xmlns="http://www.w3.org/2000/svg"
   xmlns:sodipodi="http://sodipodi.sourceforge.net/DTD/sodipodi-0.dtd"
   xmlns:inkscape="http://www.inkscape.org/namespaces/inkscape"
   id="Layer_1"
   xml:space="preserve"
   viewBox="0 0 123.95353 99.99704"
   version="1.0"
   inkscape:version="0.91 r13725"
   sodipodi:docname="logo.svg"
   width="123.95353"
   height="99.99704"><defs
     id="defs9"><clipPath
       id="clipPath4828"
       clipPathUnits="userSpaceOnUse"><path
         inkscape:connector-curvature="0"
         id="path4830"
         d="m 0,0 0,1990 5950,0 L 5950,0 0,0 Z" /></clipPath><clipPath
       clipPathUnits="userSpaceOnUse"
       id="clipPath4254"><g
         id="g4256"
         transform="matrix(14.355245,0,0,-14.355245,648.13357,2168.7281)"><rect
           y="12.663981"
           x="-12.816265"
           height="66.815598"
           width="115.95353"
           id="rect4258"
           style="color:#000000;clip-rule:nonzero;display:inline;overflow:visible;visibility:visible;opacity:1;isolation:auto;mix-blend-mode:normal;color-interpolation:sRGB;color-interpolation-filters:linearRGB;solid-color:#000000;solid-opacity:1;fill:none;fill-opacity:1;fill-rule:nonzero;stroke:#000000;stroke-width:8;stroke-linecap:butt;stroke-linejoin:miter;stroke-miterlimit:4;stroke-dasharray:none;stroke-dashoffset:0;stroke-opacity:1;color-rendering:auto;image-rendering:auto;shape-rendering:auto;text-rendering:auto;enable-background:accumulate" /><rect
           style="color:#000000;clip-rule:nonzero;display:inline;overflow:visible;visibility:visible;opacity:1;isolation:auto;mix-blend-mode:normal;color-interpolation:sRGB;color-interpolation-filters:linearRGB;solid-color:#000000;solid-opacity:1;fill:#000000;fill-opacity:1;fill-rule:nonzero;stroke:none;stroke-width:6.90457582;stroke-linecap:butt;stroke-linejoin:miter;stroke-miterlimit:4;stroke-dasharray:none;stroke-dashoffset:0;stroke-opacity:1;color-rendering:auto;image-rendering:auto;shape-rendering:auto;text-rendering:auto;enable-background:accumulate"
           id="rect4260"
           width="17.896412"
           height="22.148317"
           x="36.212296"
           y="81.607796" /><path
           sodipodi:nodetypes="cc"
           inkscape:connector-curvature="0"
           id="path4262"
           d="m 11.474059,104.66102 67.372881,0"
           style="color:#000000;clip-rule:nonzero;display:inline;overflow:visible;visibility:visible;opacity:1;isolation:auto;mix-blend-mode:normal;color-interpolation:sRGB;color-interpolation-filters:linearRGB;solid-color:#000000;solid-opacity:1;fill:none;fill-opacity:1;fill-rule:nonzero;stroke:#000000;stroke-width:8;stroke-linecap:butt;stroke-linejoin:miter;stroke-miterlimit:4;stroke-dasharray:none;stroke-dashoffset:0;stroke-opacity:1;color-rendering:auto;image-rendering:auto;shape-rendering:auto;text-rendering:auto;enable-background:accumulate" /></g></clipPath></defs><sodipodi:namedview
     pagecolor="#ffffff"
     bordercolor="#666666"
     borderopacity="1"
     objecttolerance="10"
     gridtolerance="10"
     guidetolerance="10"
     inkscape:pageopacity="0"
     inkscape:pageshadow="2"
     inkscape:window-width="1920"
     inkscape:window-height="1080"
     id="namedview7"
     showgrid="false"
     fit-margin-top="0"
     fit-margin-left="0"
     fit-margin-right="0"
     fit-margin-bottom="0"
     inkscape:zoom="2.36"
     inkscape:cx="-118.19184"
     inkscape:cy="48.645996"
     inkscape:window-x="0"
     inkscape:window-y="0"
     inkscape:window-maximized="0"
     inkscape:current-layer="Layer_1" /><metadata
     id="metadata5"><rdf:RDF><cc:Work><dc:format>image/svg+xml</dc:format><dc:type
           rdf:resource="http://purl.org/dc/dcmitype/StillImage" /><cc:license
           rdf:resource="http://creativecommons.org/publicdomain/zero/1.0/" /><dc:publisher><cc:Agent
             rdf:about="http://openclipart.org/"><dc:title>Openclipart</dc:title></cc:Agent></dc:publisher><dc:title></dc:title></cc:Work><cc:License
         rdf:about="http://creativecommons.org/publicdomain/zero/1.0/"><cc:permits
           rdf:resource="http://creativecommons.org/ns#Reproduction" /><cc:permits
           rdf:resource="http://creativecommons.org/ns#Distribution" /><cc:permits
           rdf:resource="http://creativecommons.org/ns#DerivativeWorks" /></cc:License></rdf:RDF></metadata><rect
     style="opacity:1;fill:#ffffff;fill-opacity:1;stroke:none;stroke-width:1.60000002;stroke-linejoin:round;stroke-miterlimit:4;stroke-dasharray:none;stroke-opacity:1"
     id="rect4264"
     width="88.559319"
     height="51.271187"
     x="17.372887"
     y="16.098734" /><g
     clip-path="url(#clipPath4254)"
     id="g4826"
     transform="matrix(0.05299168,0,0,-0.05299168,-6.2991717,121.92269)"
     inkscape:export-xdpi="244.35001"
     inkscape:export-ydpi="244.35001"><path
       inkscape:connector-curvature="0"
       id="path4832"
       style="fill:#4dc4c9;fill-opacity:1;fill-rule:nonzero;stroke:none"
       d="m 821.73,1027.89 c -18.058,-38.359 -45.933,-62.48 -85.277,-73.73 l -4.82,-1.371 2.785,-4.141 c 11.816,-17.597 24.484,-35.109 37.707,-52.046 l 1.59,-2.09 2.496,0.918 c 9.734,3.5 19.227,7.64 28.152,12.32 48.032,25.141 83,65.73 95.91,111.47 l 1.25,4.39 -4.574,0.22 c -25.164,1.07 -49.207,3.14 -71.457,6.11 l -2.64,0.37 -1.122,-2.42" /><path
       inkscape:connector-curvature="0"
       id="path4834"
       style="fill:#4dc4c9;fill-opacity:1;fill-rule:nonzero;stroke:none"
       d="m 963.98,1361.15 c -31.066,-20.39 -62.316,-41.85 -92.832,-63.85 -39.937,-28.73 -79.898,-59.12 -118.73,-90.33 l -2.617,-2.07 1.91,-2.79 c 9.926,-14.71 16.965,-30.96 20.984,-48.32 l 0.778,-3.4 3.402,0.63 c 39.863,7.24 81.262,15.87 123.082,25.68 53.164,12.42 108.203,26.99 163.583,43.34 l 3.71,1.09 -1.34,3.66 c -15.54,41.81 -38.58,78.8 -68.551,109.94 -9.171,9.2 -18.953,17.98 -29.078,26.21 l -2.082,1.66 -2.219,-1.45" /><path
       inkscape:connector-curvature="0"
       id="path4836"
       style="fill:#4dc4c9;fill-opacity:1;fill-rule:nonzero;stroke:none"
       d="m 1069.4,1202.91 c -56.35,-16.64 -112.337,-31.46 -166.365,-44.12 -42.082,-9.81 -83.758,-18.48 -123.863,-25.76 l -3.082,-0.57 0.348,-11.56 c 0,-16.21 -4.188,-36.97 -11.497,-56.99 l -1.394,-3.79 3.91,-0.98 c 13.188,-3.32 27.289,-6.21 41.918,-8.59 74.316,-12.21 167.168,-12.85 275.895,-1.9 l 3.03,0.3 0.23,3.06 c 0.76,10.88 1.14,21.95 1.14,32.85 0,40.73 -5.28,79.63 -15.75,115.61 l -1.02,3.48 -3.5,-1.04" /><path
       inkscape:connector-curvature="0"
       id="path4838"
       style="fill:#4dc4c9;fill-opacity:1;fill-rule:nonzero;stroke:none"
       d="M 1010.83,1015.27 C 991.461,935.16 926.094,865.609 838.402,832.211 c -11.765,12.418 -22.914,24.738 -33.113,36.68 0,0 -3.297,3.937 -6.285,7.461 5.777,2.5 11.445,5.109 16.777,7.886 55.34,28.961 94.961,75.961 109.285,129.312 18.004,-0.03 49.813,0.2 85.764,1.72" /><path
       inkscape:connector-curvature="0"
       id="path4840"
       style="fill:#4dc4c9;fill-opacity:1;fill-rule:nonzero;stroke:none"
       d="m 1117.96,1444.47 c 2.94,-2.71 8.88,-8.16 8.88,-8.16 43.39,-43.01 76.16,-95.39 97.53,-155.55 -45.07,-15.9 -90.58,-30.9 -135.55,-44.59 -16.78,44.44 -41.48,83.89 -73.57,117.25 l -0.21,0.19 c -6.17,6.18 -12.76,12.25 -19.513,18.15 41.253,26.29 82.383,50.74 122.433,72.71" /><path
       inkscape:connector-curvature="0"
       id="path4842"
       style="fill:#064d7a;fill-opacity:1;fill-rule:nonzero;stroke:none"
       d="m 639.957,1424.26 c -35.121,-12.68 -66.379,-31.62 -92.91,-56.37 l -1.094,-1.03 -0.051,-1.49 c -1.644,-44.35 4.055,-85.49 16.918,-122.3 l 1.516,-4.36 3.867,2.5 c 13.16,8.46 27.488,14.49 42.598,17.95 l 2.695,0.61 0.121,2.77 c 0.781,18.07 2.59,36.46 5.352,54.71 5.133,34.04 13.742,68.49 25.625,102.38 l 2.523,7.23 -7.16,-2.6" /><path
       inkscape:connector-curvature="0"
       id="path4844"
       style="fill:#064d7a;fill-opacity:1;fill-rule:nonzero;stroke:none"
       d="M 522.078,1340.72 C 496.5,1307.01 477.672,1270.06 466.129,1230.9 l -0.438,-1.54 0.832,-1.37 c 5.473,-8.91 11.512,-17.35 17.946,-25.02 7.703,-9.16 16.285,-17.62 25.625,-25.22 l 3.722,-3.02 1.903,4.39 c 7.683,17.77 18.66,33.48 32.648,46.64 l 1.762,1.66 -1.027,2.7 -1.735,4.63 c -11.347,31.77 -17.66,66.71 -18.781,103.92 l -0.293,10.26 -6.215,-8.21" /><path
       inkscape:connector-curvature="0"
       id="path4846"
       style="fill:#064d7a;fill-opacity:1;fill-rule:nonzero;stroke:none"
       d="m 458.328,1197.97 c -3.226,-17.7 -4.848,-35.63 -4.848,-53.22 0,-8.03 0.348,-16.16 1.028,-24.12 l 0.199,-2.35 2.207,-0.76 c 13.856,-4.96 28.484,-8.42 43.453,-10.25 l 4.18,-0.51 -0.516,15.74 c 0,10.63 1.223,21.31 3.598,31.8 l 0.516,2.28 -1.86,1.41 c -12.594,9.51 -24.183,20.49 -34.43,32.65 l -12.066,15.16 -1.461,-7.83" /><path
       inkscape:connector-curvature="0"
       id="path4848"
       style="fill:#064d7a;fill-opacity:1;fill-rule:nonzero;stroke:none"
       d="m 458.375,1092.38 c 2.793,-14.84 6.852,-29.45 12.008,-43.42 l 1.293,-3.53 3.476,1.41 c 12.274,5.04 24.426,10.23 36.075,15.45 l 3.007,1.32 -1.05,3.15 c -2.079,6.13 -3.821,12.46 -5.215,18.83 l -0.543,2.55 -2.656,0.28 c -14.188,1.37 -28.27,4.1 -41.79,8.12 l -5.707,1.68 1.102,-5.84" /><path
       inkscape:connector-curvature="0"
       id="path4850"
       style="fill:#064d7a;fill-opacity:1;fill-rule:nonzero;stroke:none"
       d="m 825.613,1430.16 c -37.586,-42.03 -70.453,-84.95 -97.726,-127.62 -10.516,-16.45 -20.344,-33.16 -29.196,-49.61 l -1.757,-3.26 3.3,-1.7 c 13.399,-6.88 25.559,-15.9 36.121,-26.86 l 2.297,-2.4 2.563,2.11 c 39.25,31.52 79.578,62.23 119.906,91.27 28.043,20.16 56.832,40.04 85.567,59.04 l 4.472,2.97 -4.402,3.05 c -36.094,25.19 -75.61,43.38 -117.524,54.1 l -2.129,0.53 -1.492,-1.62" /><path
       inkscape:connector-curvature="0"
       id="path4852"
       style="fill:#064d7a;fill-opacity:1;fill-rule:nonzero;stroke:none"
       d="m 730.898,1441.72 c -20.832,-0.84 -41.402,-3.69 -61.109,-8.5 l -1.836,-0.43 -0.683,-1.79 c -14.696,-38.05 -25.165,-76.74 -31.063,-114.98 -2.562,-16.59 -4.273,-33.36 -5.156,-49.87 l -0.192,-3.9 9.391,0.23 c 12.637,0 25.281,-1.85 37.508,-5.49 l 2.832,-0.86 1.402,2.62 c 9.215,17.21 19.446,34.73 30.465,52.09 25.563,40.27 56.078,80.8 90.606,120.41 l 4.277,4.88 -6.402,1.08 c -23.305,3.94 -46.875,5.47 -70.04,4.51" /><path
       inkscape:connector-curvature="0"
       id="path4854"
       style="fill:#064d7a;fill-opacity:1;fill-rule:nonzero;stroke:none"
       d="m 518.09,1045.43 c -11.59,-5.2 -23.621,-10.33 -35.723,-15.25 l -3.574,-1.45 1.695,-3.5 c 5.867,-12.16 12.688,-23.94 20.242,-34.996 l 2.84,-4.183 3.051,4.008 c 8.297,10.921 16.973,21.831 25.781,32.521 l 1.715,2.07 -1.496,2.23 c -3.594,5.48 -6.875,11.17 -9.805,16.89 l -1.543,3.07 -3.183,-1.41" /><path
       inkscape:connector-curvature="0"
       id="path4856"
       style="fill:#064d7a;fill-opacity:1;fill-rule:nonzero;stroke:none"
       d="m 638.363,946.66 c 2.325,-14.75 5.328,-29.73 9,-44.488 l 4.223,-16.211 2.305,-0.371 c 32.359,-5.879 64.777,-5.16 96.324,2.14 l 5.504,1.29 -3.422,4.48 c -13.406,17.551 -26.219,35.641 -38.098,53.77 l -1.219,1.91 -2.277,-0.289 c -9.883,-1.332 -20.469,-2 -31.457,-2 -12.25,0 -24.543,1.308 -36.504,3.871 l -5.16,1.129 0.781,-5.231" /><path
       inkscape:connector-curvature="0"
       id="path4858"
       style="fill:#064d7a;fill-opacity:1;fill-rule:nonzero;stroke:none"
       d="m 579.063,972.891 c -3.969,-15.801 -7.461,-32.539 -10.348,-49.801 l -0.371,-2.231 1.844,-1.328 c 5.812,-4.179 11.761,-8.16 17.648,-11.832 l 0.152,-0.097 0.141,-0.082 c 12.23,-6.11 25.09,-11.25 38.25,-15.25 l 6.16,-1.879 -2.371,9.359 c -4.5,18.57 -8.043,37.262 -10.512,55.641 l -0.269,2.148 -2.059,0.762 c -11.414,4.379 -22.449,10 -32.742,16.738 l -4.281,2.77 -1.242,-4.918" /><path
       inkscape:connector-curvature="0"
       id="path4860"
       style="fill:#064d7a;fill-opacity:1;fill-rule:nonzero;stroke:none"
       d="m 542.355,1006.76 c -8.832,-10.803 -17.531,-21.881 -25.871,-32.951 l -1.738,-2.309 1.836,-2.219 c 9.508,-11.41 20.094,-22.23 31.492,-32.191 l 4.77,-4.18 1.179,6.27 c 3.008,15.98 6.551,31.66 10.54,46.582 0,-0.024 0.187,0.687 0.187,0.687 l 0.813,2.832 -1.711,1.559 -8.317,7.832 -10.469,11.228 -2.711,-3.14" /><path
       inkscape:connector-curvature="0"
       id="path4862"
       style="fill:#064d7a;fill-opacity:1;fill-rule:nonzero;stroke:none"
       d="m 910.98,1551.45 c -16.261,-14.54 -31.835,-29.03 -46.335,-43.23 -15.872,-15.54 -31.383,-31.56 -46.176,-47.63 -29.391,6.09 -59.156,8.63 -88.571,7.44 -13.355,-0.55 -26.605,-2.05 -39.644,-4.1 7.242,15.62 15.019,31.19 23.531,46.28 8.461,15.02 17.824,30.22 27.824,45.24 54.93,9.86 113.227,8.4 169.371,-4" /><path
       inkscape:connector-curvature="0"
       id="path4864"
       style="fill:#064d7a;fill-opacity:1;fill-rule:nonzero;stroke:none"
       d="m 528.27,1439.92 c 0.316,0.33 0.656,0.69 0.949,1.02 -2.563,-13.5 -4.625,-26.82 -6.059,-39.73 -0.859,-7.38 -1.472,-14.9 -1.961,-22.44 -4.816,-4.88 -9.461,-9.92 -13.789,-15 l -0.18,-0.16 c -0.066,-0.09 -0.238,-0.33 -0.238,-0.33 -22.058,-27.87 -39.836,-58.22 -52.992,-90.33 -3.426,9.41 -6.434,19.32 -8.922,29.61 19.488,49.33 47.442,95.55 83.192,137.36" /><path
       inkscape:connector-curvature="0"
       id="path4866"
       style="fill:#064d7a;fill-opacity:1;fill-rule:nonzero;stroke:none"
       d="m 427.582,1248.52 c 3.301,-7.82 6.875,-15.53 10.836,-22.84 -6.797,-26.85 -10.266,-54.02 -10.266,-80.91 0,-1.64 0.051,-3.29 0.075,-4.93 -4.555,2.62 -9.028,5.43 -13.481,8.46 0.051,33.22 4.356,66.88 12.836,100.22" /><path
       inkscape:connector-curvature="0"
       id="path4868"
       style="fill:#064d7a;fill-opacity:1;fill-rule:nonzero;stroke:none"
       d="m 694.313,1543.91 c -3.52,-5.9 -6.969,-11.78 -10.192,-17.54 -13.086,-23.32 -24.726,-47.37 -34.726,-71.47 -33.235,-9.78 -63.832,-24.69 -91.125,-44.37 3.23,22.79 8.222,46.52 14.992,70.8 35.875,27.93 76.547,48.88 121.051,62.58" /><path
       inkscape:connector-curvature="0"
       id="path4870"
       style="fill:#064d7a;fill-opacity:1;fill-rule:nonzero;stroke:none"
       d="m 458.523,1011.99 c 6.891,-14.119 14.989,-27.791 24.11,-40.701 -4.012,-5.609 -7.903,-11.23 -11.758,-16.879 -10.707,16.43 -20.008,33.789 -27.711,51.84 4.746,1.76 11.176,4.18 15.359,5.74" /><path
       inkscape:connector-curvature="0"
       id="path4872"
       style="fill:#064d7a;fill-opacity:1;fill-rule:nonzero;stroke:none"
       d="m 417.102,1106.84 c 4.738,-2.58 9.507,-5 14.277,-7.17 0.394,-2.5 0.98,-6.21 0.98,-6.21 l 0,0.04 c 2.836,-16.92 7.188,-33.58 12.868,-49.67 -4.164,-1.56 -9.52,-3.6 -13.993,-5.26 -6.875,21.94 -11.589,44.83 -14.132,68.27" /><path
       inkscape:connector-curvature="0"
       id="path4874"
       style="fill:#064d7a;fill-opacity:1;fill-rule:nonzero;stroke:none"
       d="m 888.949,1484.36 c 19.25,18.86 40.004,37.87 61.598,56.56 50.453,-16.06 97.183,-40.61 139.203,-72.93 -40.33,-22.54 -81.43,-47.23 -122.422,-73.63 -34.242,24.9 -71.676,43.82 -111.465,56.42 10.883,11.43 21.934,22.76 33.086,33.58" /><path
       inkscape:connector-curvature="0"
       id="path4876"
       style="fill:#064d7a;fill-opacity:1;fill-rule:nonzero;stroke:none"
       d="m 702.09,855.211 c 21.18,0.449 42.262,3.578 62.805,9.18 2.882,-3.493 14.058,-16.95 14.058,-16.95 7.465,-8.769 15.36,-17.64 23.426,-26.421 -38.297,-9.59 -77.453,-11.942 -116.578,-6.879 -6.039,14.097 -11.469,28.359 -16.332,42.578 10.808,-1.129 21.738,-1.719 32.621,-1.508" /><path
       inkscape:connector-curvature="0"
       id="path4878"
       style="fill:#064d7a;fill-opacity:1;fill-rule:nonzero;stroke:none"
       d="m 571.918,886.988 c 1.539,-1.027 3.375,-2.199 3.375,-2.199 0.027,0 0.637,-0.398 0.637,-0.398 l 0.656,-0.313 c 17.785,-8.957 36.394,-15.879 55.246,-20.699 4.254,-13.789 9.199,-27.68 14.531,-41.469 -22.625,5.918 -44.832,14.238 -66.082,25.059 -0.293,0.222 -8.504,5.742 -11.543,7.781 0.856,10.988 1.93,21.73 3.18,32.238" /><path
       inkscape:connector-curvature="0"
       id="path4880"
       style="fill:#064d7a;fill-opacity:1;fill-rule:nonzero;stroke:none"
       d="m 504.695,943.672 c 11.008,-12.242 23.137,-23.793 36.168,-34.352 -1.422,-9.91 -2.644,-20.039 -3.695,-30.242 -16.531,14.184 -31.715,29.652 -45.148,46.192 4.113,6.179 8.367,12.312 12.675,18.402" /></g><g
     id="g4151"
     transform="matrix(0.76070857,0,0,0.76070857,28.046516,6.9981456)"
     inkscape:export-xdpi="244.35001"
     inkscape:export-ydpi="244.35001"><rect
       y="12.663981"
       x="-12.816265"
       height="66.815598"
       width="115.95353"
       id="rect4137"
       style="color:#000000;clip-rule:nonzero;display:inline;overflow:visible;visibility:visible;opacity:1;isolation:auto;mix-blend-mode:normal;color-interpolation:sRGB;color-interpolation-filters:linearRGB;solid-color:#000000;solid-opacity:1;fill:none;fill-opacity:1;fill-rule:nonzero;stroke:#000000;stroke-width:8;stroke-linecap:butt;stroke-linejoin:miter;stroke-miterlimit:4;stroke-dasharray:none;stroke-dashoffset:0;stroke-opacity:1;color-rendering:auto;image-rendering:auto;shape-rendering:auto;text-rendering:auto;enable-background:accumulate" /><rect
       style="color:#000000;clip-rule:nonzero;display:inline;overflow:visible;visibility:visible;opacity:1;isolation:auto;mix-blend-mode:normal;color-interpolation:sRGB;color-interpolation-filters:linearRGB;solid-color:#000000;solid-opacity:1;fill:#000000;fill-opacity:1;fill-rule:nonzero;stroke:none;stroke-width:6.90457582;stroke-linecap:butt;stroke-linejoin:miter;stroke-miterlimit:4;stroke-dasharray:none;stroke-dashoffset:0;stroke-opacity:1;color-rendering:auto;image-rendering:auto;shape-rendering:auto;text-rendering:auto;enable-background:accumulate"
       id="rect4139"
       width="17.896412"
       height="22.148317"
       x="36.212296"
       y="81.607796" /><path
       sodipodi:nodetypes="cc"
       inkscape:connector-curvature="0"
       id="path4141"
       d="m 11.474059,104.66102 67.372881,0"
       style="color:#000000;clip-rule:nonzero;display:inline;overflow:visible;visibility:visible;opacity:1;isolation:auto;mix-blend-mode:normal;color-interpolation:sRGB;color-interpolation-filters:linearRGB;solid-color:#000000;solid-opacity:1;fill:none;fill-opacity:1;fill-rule:nonzero;stroke:#000000;stroke-width:8;stroke-linecap:butt;stroke-linejoin:miter;stroke-miterlimit:4;stroke-dasharray:none;stroke-dashoffset:0;stroke-opacity:1;color-rendering:auto;image-rendering:auto;shape-rendering:auto;text-rendering:auto;enable-background:accumulate" /></g><path
     inkscape:connector-curvature="0"
     d="m 78.380259,40.349109 c 1.982675,-1.157843 3.233175,-1.984702 3.233175,-1.984702 C 104.8189,22.153253 101.79468,7.3783241 101.71221,6.7118407 101.07968,6.4880494 87.305436,0.34681697 66.468301,19.506831 c 0,0 -1.083006,1.049086 -2.649525,2.74446 -16.800477,-4.634656 -25.005944,8.651423 -25.005944,8.651423 6.765613,-1.357546 11.788404,0.269901 14.85743,1.921457 l 4.462529,-4.620413 -3.068189,5.449913 c 0.0015,0.0011 0.0038,0.0025 0.0053,0.0037 -0.477284,0.821485 -0.90487,1.652454 -1.272871,2.476738 -0.01499,0.03386 -0.02518,0.07232 -0.03309,0.112566 -0.941195,2.226824 -0.411529,5.274762 1.566466,7.737614 1.986035,2.47286 4.86413,3.647496 7.247354,3.1934 0.03408,-8.37e-4 0.0674,-0.0038 0.09799,-0.01009 0.873354,-0.1928 1.768404,-0.44056 2.672415,-0.728435 3.12e-4,0.0015 7.61e-4,0.0036 0.0023,0.0048 l 5.972574,-1.816501 -5.453421,3.385486 c 0.949266,3.353999 1.454627,8.608643 -1.330433,14.922478 -4.8e-4,-7.45e-4 14.763736,-5.152104 13.840955,-22.586253 z m 3.911883,-18.019333 c -1.702885,-2.120309 -1.364506,-5.219579 0.755806,-6.92247 2.120308,-1.702892 5.219579,-1.364511 6.922471,0.755798 1.702884,2.12031 1.364506,5.219578 -0.755802,6.922472 -2.120308,1.70289 -5.219579,1.36451 -6.922475,-0.7558 z"
     id="path3"
     style="fill:#0088aa"
     inkscape:export-xdpi="244.35001"
     inkscape:export-ydpi="244.35001" /><circle
     style="opacity:1;fill:#ffffff;fill-opacity:1;stroke:none;stroke-width:1.60000002;stroke-linejoin:round;stroke-miterlimit:4;stroke-dasharray:none;stroke-opacity:1"
     id="path4218"
     cx="86.127457"
     cy="19.267799"
     r="5.0364709"
     inkscape:export-xdpi="244.35001"
     inkscape:export-ydpi="244.35001" /></svg>